<?xml version="1.0" standalone="no"?>
<!DOCTYPE svg PUBLIC "-//W3C//DTD SVG 20010904//EN"
 "http://www.w3.org/TR/2001/REC-SVG-20010904/DTD/svg10.dtd">
<svg version="1.0" xmlns="http://www.w3.org/2000/svg"
 width="261.000000pt" height="300.000000pt" viewBox="0 0 261.000000 300.000000"
 preserveAspectRatio="xMidYMid meet">

<g transform="translate(0.000000,300.000000) scale(0.100000,-0.100000)"
fill="#000000" stroke="none">
<path d="M1253 2982 c-20 -10 -105 -107 -212 -239 l-179 -223 -4 114 c-4 162
4 156 -215 156 -160 0 -175 -2 -193 -20 -19 -19 -20 -34 -20 -402 l-1 -383
-174 -214 c-99 -122 -187 -220 -203 -228 -45 -22 -52 -50 -52 -199 l0 -136 29
-29 c20 -19 40 -29 60 -29 l31 0 0 -495 0 -495 -43 0 c-57 0 -77 -22 -77 -82
0 -85 -125 -78 1307 -78 1218 0 1271 1 1286 18 11 12 17 36 17 64 0 57 -21 78
-78 78 l-42 0 0 495 0 495 31 0 c20 0 40 10 60 29 l29 29 0 136 c0 77 -5 145
-11 159 -6 14 -26 33 -45 43 -21 12 -231 264 -599 719 -367 455 -576 706 -598
717 -17 10 -41 18 -52 18 -11 0 -35 -8 -52 -18z m89 -44 c38 -31 329 -402 324
-414 -19 -47 -20 -45 8 -33 14 7 28 10 29 8 2 -2 89 -110 193 -239 105 -129
193 -241 198 -248 4 -7 -3 -25 -19 -43 -32 -39 -25 -50 15 -21 16 12 31 22 34
22 4 0 146 -171 304 -367 34 -42 34 -43 11 -43 -19 0 -50 33 -139 145 -63 79
-120 144 -127 145 -33 1 -16 -32 76 -145 56 -68 104 -131 107 -139 5 -12 -132
-14 -1050 -14 -594 0 -1056 3 -1056 8 0 5 24 37 53 72 219 263 285 358 247
358 -5 0 -86 -96 -180 -212 -134 -165 -178 -214 -199 -216 -24 -4 -25 -3 -10
15 9 10 102 125 208 256 106 130 195 237 198 237 4 0 14 -7 24 -16 29 -26 43
-12 19 19 -15 18 -19 32 -13 40 39 51 652 806 666 819 20 21 56 23 79 6z
m-832 -233 c0 -28 -4 -35 -20 -35 -20 0 -26 22 -14 54 12 30 34 18 34 -19z
m-10 -95 c0 -16 -4 -30 -9 -30 -5 0 -11 14 -13 30 -3 20 0 30 9 30 8 0 13 -12
13 -30z m10 -85 c0 -18 -5 -25 -20 -25 -15 0 -20 7 -20 25 0 18 5 25 20 25 15
0 20 -7 20 -25z m-2 -88 c3 -22 -1 -27 -17 -27 -15 0 -21 6 -21 23 0 46 33 49
38 4z m-8 -87 c0 -16 -4 -30 -10 -30 -5 0 -10 14 -10 30 0 17 5 30 10 30 6 0
10 -13 10 -30z m0 -85 c0 -14 -4 -25 -9 -25 -5 0 -11 11 -13 25 -4 17 -1 25 8
25 8 0 14 -11 14 -25z m8 -88 c3 -22 -1 -27 -17 -27 -15 0 -21 6 -21 23 0 46
33 49 38 4z m-8 -81 c0 -13 -6 -28 -13 -34 -10 -9 -12 -4 -9 23 5 39 22 48 22
11z m2041 -596 c17 -10 19 -22 19 -110 l0 -100 -636 0 c-600 0 -635 -1 -632
-17 3 -17 43 -18 636 -21 653 -2 657 -3 620 -40 -17 -17 -2469 -17 -2486 0
-37 37 -26 38 460 40 441 3 473 4 476 21 3 16 -25 17 -472 17 l-476 0 0 100
c0 84 3 101 18 109 24 14 2446 15 2473 1z m-2351 -390 c0 -22 -4 -40 -10 -40
-5 0 -10 18 -10 40 0 22 5 40 10 40 6 0 10 -18 10 -40z m2060 -460 l0 -490
-945 0 -945 0 0 490 0 490 945 0 945 0 0 -490z m190 455 c0 -19 -4 -35 -10
-35 -5 0 -10 16 -10 35 0 19 5 35 10 35 6 0 10 -16 10 -35z m-2250 -130 c0
-37 -4 -65 -10 -65 -6 0 -10 28 -10 65 0 37 4 65 10 65 6 0 10 -28 10 -65z
m2250 0 c0 -37 -4 -65 -10 -65 -6 0 -10 28 -10 65 0 37 4 65 10 65 6 0 10 -28
10 -65z m-2250 -160 c0 -37 -4 -65 -10 -65 -6 0 -10 28 -10 65 0 37 4 65 10
65 6 0 10 -28 10 -65z m2250 0 c0 -37 -4 -65 -10 -65 -6 0 -10 28 -10 65 0 37
4 65 10 65 6 0 10 -28 10 -65z m-2250 -160 c0 -37 -4 -65 -10 -65 -6 0 -10 28
-10 65 0 37 4 65 10 65 6 0 10 -28 10 -65z m2250 0 c0 -37 -4 -65 -10 -65 -6
0 -10 28 -10 65 0 37 4 65 10 65 6 0 10 -28 10 -65z m-2250 -160 c0 -37 -4
-65 -10 -65 -6 0 -10 28 -10 65 0 37 4 65 10 65 6 0 10 -28 10 -65z m2250 0
c0 -37 -4 -65 -10 -65 -6 0 -10 28 -10 65 0 37 4 65 10 65 6 0 10 -28 10 -65z
m-2250 -165 c0 -40 -4 -70 -10 -70 -6 0 -10 30 -10 70 0 40 4 70 10 70 6 0 10
-30 10 -70z m2250 0 c0 -40 -4 -70 -10 -70 -6 0 -10 30 -10 70 0 40 4 70 10
70 6 0 10 -30 10 -70z m-2250 -135 c0 -19 -4 -35 -10 -35 -5 0 -10 16 -10 35
0 19 5 35 10 35 6 0 10 -16 10 -35z m2250 0 c0 -19 -4 -35 -10 -35 -5 0 -10
16 -10 35 0 19 5 35 10 35 6 0 10 -16 10 -35z m120 -115 l0 -30 -1255 0 -1255
0 0 30 0 30 1255 0 1255 0 0 -30z"/>
<path d="M1192 2794 c-84 -104 -104 -144 -73 -144 5 0 49 50 97 110 48 61 88
110 89 110 0 0 59 -72 130 -160 120 -150 155 -182 155 -145 0 26 -260 340
-284 343 -16 2 -42 -24 -114 -114z"/>
<path d="M1247 2659 c-24 -14 -47 -62 -47 -100 0 -46 56 -99 105 -99 49 0 105
53 105 99 0 39 -24 87 -49 101 -25 13 -91 13 -114 -1z"/>
<path d="M958 2502 c-252 -303 -287 -354 -245 -351 18 1 345 411 340 426 -9
24 -22 14 -95 -75z"/>
<path d="M1100 2500 c0 -5 5 -10 10 -10 6 0 10 5 10 10 0 6 -4 10 -10 10 -5 0
-10 -4 -10 -10z"/>
<path d="M1570 2470 c0 -5 5 -10 10 -10 6 0 10 5 10 10 0 6 -4 10 -10 10 -5 0
-10 -4 -10 -10z"/>
<path d="M1480 2442 c0 -7 -7 -12 -16 -12 -20 0 -13 -24 9 -28 21 -4 34 25 18
41 -8 8 -11 8 -11 -1z"/>
<path d="M1200 2424 c0 -9 9 -18 19 -21 11 -3 22 -16 26 -30 8 -32 48 -29 53
5 2 13 10 26 18 29 21 8 17 22 -5 16 -10 -3 -23 -14 -28 -26 l-10 -22 -7 23
c-4 13 -15 22 -27 22 -10 0 -19 5 -19 10 0 6 -4 10 -10 10 -5 0 -10 -7 -10
-16z"/>
<path d="M1682 2421 c5 -31 330 -430 351 -430 9 -1 17 5 17 12 -1 18 -339 431
-357 435 -10 3 -14 -3 -11 -17z"/>
<path d="M1008 2418 c-14 -36 23 -53 42 -19 14 28 12 35 -6 20 -12 -10 -17
-10 -23 0 -7 10 -9 10 -13 -1z"/>
<path d="M1490 2315 c-19 -49 -23 -104 -10 -120 36 -43 81 5 84 87 1 53 1 53
-32 56 -27 3 -34 -1 -42 -23z m37 -50 c-6 -25 -13 -45 -17 -45 -4 0 -3 20 3
45 6 25 13 45 17 45 4 0 3 -20 -3 -45z"/>
<path d="M1018 2294 c-34 -18 -48 -43 -48 -86 0 -39 34 -83 56 -74 8 3 17 -1
20 -9 4 -8 13 -15 21 -15 26 0 73 30 73 47 0 9 7 24 16 34 35 39 -18 119 -78
119 -18 -1 -45 -7 -60 -16z m102 -43 c15 -30 12 -41 -11 -41 -18 0 -20 -4 -15
-25 7 -29 -10 -34 -29 -8 -11 14 -16 15 -28 4 -13 -10 -17 -9 -26 8 -15 28
-14 38 9 61 27 27 85 27 100 1z"/>
<path d="M1272 2229 c2 -6 8 -10 13 -10 5 0 11 4 13 10 2 6 -4 11 -13 11 -9 0
-15 -5 -13 -11z"/>
<path d="M1730 2210 c0 -5 5 -10 10 -10 6 0 10 5 10 10 0 6 -4 10 -10 10 -5 0
-10 -4 -10 -10z"/>
<path d="M1327 2184 c-8 -8 1 -24 14 -24 5 0 9 7 9 15 0 15 -12 20 -23 9z"/>
<path d="M1270 2155 c0 -9 5 -15 11 -13 6 2 11 8 11 13 0 5 -5 11 -11 13 -6 2
-11 -4 -11 -13z"/>
<path d="M1440 2167 c0 -10 32 -67 41 -73 15 -9 39 16 39 40 -1 20 -2 20 -14
4 -16 -22 -26 -23 -26 -3 0 8 -9 19 -20 25 -11 6 -20 9 -20 7z"/>
<path d="M806 2143 c-11 -11 -6 -23 9 -23 8 0 15 4 15 9 0 13 -16 22 -24 14z"/>
<path d="M910 2089 c0 -5 11 -21 25 -35 14 -14 25 -36 25 -49 0 -14 9 -30 20
-37 11 -7 20 -20 20 -29 0 -9 8 -27 19 -40 15 -19 21 -21 34 -11 15 13 29 102
16 102 -10 0 -19 -28 -19 -56 0 -13 -4 -24 -10 -24 -5 0 -10 9 -10 20 0 12
-11 32 -25 46 -14 14 -25 36 -25 49 0 14 -5 25 -10 25 -6 0 -22 11 -35 25 -14
13 -25 20 -25 14z"/>
<path d="M1647 2080 c-31 -25 -43 -56 -27 -75 7 -9 8 -15 0 -20 -17 -10 -12
-22 22 -54 20 -18 36 -27 42 -21 5 5 22 6 38 3 22 -4 35 0 53 17 88 82 -33
224 -128 150z m106 -42 c21 -25 22 -61 2 -78 -13 -10 -19 -10 -34 4 -16 15
-19 15 -31 1 -9 -11 -16 -13 -23 -6 -7 7 -6 16 4 27 11 14 11 18 -6 31 -20 14
-20 15 4 34 27 22 57 18 84 -13z"/>
<path d="M1272 2028 c-18 -18 -14 -37 17 -88 32 -53 72 -66 91 -30 9 18 6 30
-18 73 -30 54 -64 71 -90 45z m78 -100 c0 -5 -2 -8 -5 -8 -6 0 -45 76 -45 87
1 10 50 -69 50 -79z"/>
<path d="M741 2004 c-60 -42 -58 -138 2 -174 62 -38 126 -19 154 47 38 93 -74
184 -156 127z"/>
<path d="M1886 1874 c-9 -8 -17 -27 -17 -42 -1 -22 -2 -23 -6 -6 -4 23 -43 64
-43 46 0 -6 5 -14 10 -17 6 -4 8 -16 5 -26 -6 -19 9 -49 26 -49 19 0 39 33 33
56 -4 14 -1 31 6 39 16 20 6 19 -14 -1z"/>
<path d="M1405 1829 c-10 -15 3 -25 16 -12 7 7 7 13 1 17 -6 3 -14 1 -17 -5z"/>
<path d="M1534 1816 c-67 -29 -85 -109 -38 -165 32 -38 80 -49 123 -27 33 17
61 62 61 96 0 37 -30 81 -65 96 -41 17 -42 17 -81 0z"/>
<path d="M1936 1814 c-21 -21 -20 -30 9 -92 22 -47 28 -53 51 -50 42 5 51 29
29 80 -33 76 -58 94 -89 62z m63 -104 c0 -18 -24 25 -33 60 -5 19 -2 16 13
-10 11 -19 20 -42 20 -50z"/>
<path d="M1340 1805 c0 -8 5 -15 10 -15 6 0 10 7 10 15 0 8 -4 15 -10 15 -5 0
-10 -7 -10 -15z"/>
<path d="M940 1800 c0 -5 5 -10 10 -10 6 0 10 5 10 10 0 6 -4 10 -10 10 -5 0
-10 -4 -10 -10z"/>
<path d="M1073 1795 c-49 -21 -72 -87 -39 -115 8 -6 12 -18 10 -25 -4 -9 9
-21 35 -34 35 -18 41 -19 55 -6 8 8 24 15 35 15 23 0 51 45 51 82 0 33 -27 68
-66 84 -40 17 -41 17 -81 -1z m85 -41 c14 -10 22 -26 22 -44 0 -34 -15 -47
-35 -30 -11 9 -17 7 -27 -9 -18 -29 -31 -26 -24 5 5 20 3 27 -14 31 -24 6 -26
26 -4 47 20 20 53 20 82 0z"/>
<path d="M890 1765 c0 -8 5 -15 10 -15 6 0 10 7 10 15 0 8 -4 15 -10 15 -5 0
-10 -7 -10 -15z"/>
<path d="M1390 1770 c0 -5 5 -10 10 -10 6 0 10 5 10 10 0 6 -4 10 -10 10 -5 0
-10 -4 -10 -10z"/>
<path d="M486 1752 c-3 -6 -1 -14 5 -17 15 -10 25 3 12 16 -7 7 -13 7 -17 1z"/>
<path d="M936 1741 c-4 -5 -2 -12 3 -15 5 -4 12 -2 15 3 4 5 2 12 -3 15 -5 4
-12 2 -15 -3z"/>
<path d="M580 1725 c-19 -23 -8 -47 35 -77 48 -33 90 -36 105 -9 15 29 3 47
-47 76 -52 29 -75 31 -93 10z m110 -68 c0 -5 -18 2 -40 14 -22 13 -40 26 -40
30 0 4 18 -2 40 -14 22 -12 40 -26 40 -30z"/>
<path d="M1765 1709 c-10 -15 3 -25 16 -12 7 7 7 13 1 17 -6 3 -14 1 -17 -5z"/>
<path d="M1368 1685 c-10 -13 -18 -34 -19 -47 -1 -21 -2 -20 -14 7 l-14 30 -1
-31 c0 -36 24 -64 42 -46 9 9 32 102 26 108 -2 1 -11 -8 -20 -21z"/>
<path d="M844 1677 c-4 -10 -2 -23 4 -29 14 -14 42 -3 42 17 0 9 -5 13 -11 9
-6 -3 -15 0 -20 7 -6 11 -9 10 -15 -4z"/>
<path d="M2140 1661 c0 -6 5 -13 10 -16 6 -3 10 1 10 9 0 9 -4 16 -10 16 -5 0
-10 -4 -10 -9z"/>
<path d="M455 1639 c-4 -6 -13 -8 -21 -5 -8 3 -14 -1 -14 -8 0 -21 28 -27 45
-10 8 9 15 20 15 25 0 12 -17 11 -25 -2z"/>
<path d="M1850 1635 c0 -8 -8 -15 -17 -15 -16 0 -16 -1 0 -17 16 -16 18 -16
33 -1 9 9 14 24 11 32 -8 20 -27 21 -27 1z"/>
<path d="M2190 1630 c0 -5 5 -10 10 -10 6 0 10 5 10 10 0 6 -4 10 -10 10 -5 0
-10 -4 -10 -10z"/>
<path d="M2130 1600 c0 -5 7 -10 15 -10 8 0 15 5 15 10 0 6 -7 10 -15 10 -8 0
-15 -4 -15 -10z"/>
<path d="M1082 1273 c6 -31 88 -29 88 2 0 11 -12 15 -46 15 -38 0 -45 -3 -42
-17z"/>
<path d="M670 841 l0 -171 45 0 45 0 0 45 0 45 46 0 c86 0 113 29 114 122 0
57 -4 71 -24 95 -23 27 -29 28 -125 31 l-101 4 0 -171z m155 39 c0 -32 -3 -35
-32 -38 -32 -3 -33 -3 -33 38 0 41 1 41 33 38 29 -3 32 -6 32 -38z"/>
<path d="M970 841 l0 -171 45 0 45 0 -2 168 -3 167 -42 3 -43 3 0 -170z"/>
<path d="M1104 996 c-3 -8 -4 -27 -2 -43 3 -26 6 -28 61 -33 l57 -5 -60 -90
c-42 -64 -60 -99 -60 -122 l0 -33 120 0 120 0 0 40 0 39 -60 3 -60 3 60 90
c47 70 60 98 60 128 l0 37 -115 0 c-91 0 -117 -3 -121 -14z"/>
<path d="M1380 965 l0 -45 55 0 c30 0 55 -2 55 -5 0 -3 -25 -42 -55 -88 -42
-63 -55 -90 -55 -119 l0 -38 115 0 115 0 0 40 0 40 -60 0 -61 0 61 90 c49 72
60 97 60 130 l0 40 -115 0 -115 0 0 -45z"/>
<path d="M1736 1001 c-8 -12 -96 -308 -96 -321 0 -5 20 -10 45 -10 39 0 45 3
51 25 5 22 11 25 54 25 43 0 49 -3 54 -25 6 -22 11 -25 55 -25 l49 0 -34 113
c-19 61 -41 138 -50 170 l-17 57 -53 0 c-29 0 -55 -4 -58 -9z m64 -113 c0 -7
3 -30 6 -50 6 -35 5 -38 -16 -38 -21 0 -22 3 -16 38 3 20 6 43 6 50 0 6 5 12
10 12 6 0 10 -6 10 -12z"/>
<path d="M564 617 c-2 -7 -3 -82 -2 -167 l3 -155 38 -3 37 -3 0 65 0 66 60 0
60 0 0 -65 0 -65 35 0 35 0 0 170 0 170 -35 0 -35 0 0 -70 0 -70 -60 0 -60 0
0 70 0 70 -35 0 c-20 0 -38 -6 -41 -13z"/>
<path d="M939 615 c-38 -21 -54 -68 -54 -160 1 -131 31 -165 141 -165 107 0
139 41 138 175 0 89 -19 135 -61 154 -34 15 -133 13 -164 -4z m141 -81 c6 -14
10 -47 10 -74 0 -27 -4 -60 -10 -74 -8 -23 -15 -26 -54 -26 -56 0 -66 15 -66
100 0 85 10 100 66 100 39 0 46 -3 54 -26z"/>
<path d="M1210 500 c0 -189 21 -217 156 -208 58 4 70 8 90 32 23 26 24 34 24
167 l0 139 -40 0 -39 0 -3 -132 -3 -133 -50 0 -50 0 -3 133 -3 132 -39 0 -40
0 0 -130z"/>
<path d="M1555 606 c-21 -21 -25 -35 -25 -81 0 -78 24 -100 120 -107 30 -3 35
-7 35 -28 0 -24 -2 -25 -78 -28 l-78 -3 3 -32 3 -32 86 -3 c110 -4 130 9 137
90 4 47 1 58 -19 82 -19 22 -35 28 -82 33 -55 6 -58 7 -55 32 3 25 6 26 71 29
l68 3 -3 32 -3 32 -78 3 c-71 3 -79 1 -102 -22z"/>
<path d="M1835 606 c-24 -24 -25 -30 -25 -151 0 -163 1 -165 135 -165 l95 0 0
35 0 35 -75 0 -75 0 0 34 c0 21 5 34 13 33 6 0 36 1 65 1 51 2 52 3 52 32 l0
30 -65 0 -65 0 0 35 0 35 76 0 75 0 -3 33 -3 32 -88 3 c-81 3 -89 1 -112 -22z"/>
</g>
</svg>
